<?xml version="1.0" encoding="UTF-8" standalone="no"?>
<svg
   width="128"
   height="128"
   version="1.1"
   viewBox="0 0 128 128"
   id="svg4"
   sodipodi:docname="star_filled.svg"
   inkscape:version="1.1 (c68e22c387, 2021-05-23)"
   xmlns:inkscape="http://www.inkscape.org/namespaces/inkscape"
   xmlns:sodipodi="http://sodipodi.sourceforge.net/DTD/sodipodi-0.dtd"
   xmlns="http://www.w3.org/2000/svg"
   xmlns:svg="http://www.w3.org/2000/svg">
  <sodipodi:namedview
     id="namedview5"
     pagecolor="#ffffff"
     bordercolor="#666666"
     borderopacity="1.0"
     inkscape:pageshadow="2"
     inkscape:pageopacity="0.0"
     inkscape:pagecheckerboard="true"
     showgrid="false"
     inkscape:zoom="6.8203125"
     inkscape:cx="64"
     inkscape:cy="59.747995"
     inkscape:window-width="2560"
     inkscape:window-height="1377"
     inkscape:window-x="-8"
     inkscape:window-y="-8"
     inkscape:window-maximized="1"
     inkscape:current-layer="svg4" />
  <defs
     id="defs8" />
  <path
     d="m 64,17.090985 c -5.307206,0 -12.400847,25.543134 -16.694468,28.662631 -4.293619,3.119497 -30.778633,1.972687 -32.418653,7.020139 -1.64001,5.047453 20.460891,19.687168 22.100908,24.734622 1.640016,5.047452 -7.634984,29.881803 -3.341365,33.001303 4.29362,3.1195 25.046372,-13.375784 30.353578,-13.375784 5.307206,1e-6 26.059954,16.495284 30.353573,13.375784 4.29362,-3.11949 -4.981379,-27.953853 -3.341362,-33.001306 C 92.652228,72.460922 114.75313,57.82121 113.11312,52.773758 111.4731,47.726305 84.988083,48.873112 80.694463,45.753615 76.400844,42.634117 69.307206,17.090985 64,17.090985 Z"
     fill="#777777"
     stroke="#777777"
     stroke-linejoin="round"
     stroke-width="4"
     id="path2"
     style="fill:#ffffff;fill-opacity:1;stroke:#ffffff;stroke-opacity:1" />
</svg>
